<mxfile host="app.diagrams.net" modified="2020-12-28T09:35:55.527Z" agent="5.0 (Windows NT 10.0; Win64; x64) AppleWebKit/537.36 (KHTML, like Gecko) Chrome/87.0.4280.88 Safari/537.36" etag="LN78xwvZcTkG8FcrbYM5" version="14.1.2" type="github">
  <diagram name="Page-1" id="42789a77-a242-8287-6e28-9cd8cfd52e62">
    <mxGraphModel dx="868" dy="450" grid="1" gridSize="10" guides="1" tooltips="1" connect="1" arrows="1" fold="1" page="1" pageScale="1" pageWidth="1100" pageHeight="850" background="#ffffff" math="0" shadow="0">
      <root>
        <mxCell id="0" />
        <mxCell id="1" parent="0" />
        <mxCell id="Pziv6GngQ0p8H3us6Z9j-9" value="" style="rounded=0;orthogonalLoop=1;jettySize=auto;html=1;entryX=0.5;entryY=0;entryDx=0;entryDy=0;startArrow=classic;startFill=1;exitX=0;exitY=1;exitDx=0;exitDy=0;fontFamily=Comic Sans MS;fontSize=14;" edge="1" parent="1" source="Pziv6GngQ0p8H3us6Z9j-1" target="Pziv6GngQ0p8H3us6Z9j-5">
          <mxGeometry relative="1" as="geometry">
            <mxPoint x="274.5" y="400" as="targetPoint" />
          </mxGeometry>
        </mxCell>
        <mxCell id="Pziv6GngQ0p8H3us6Z9j-13" value="XML" style="edgeLabel;html=1;align=center;verticalAlign=middle;resizable=0;points=[];fontFamily=Comic Sans MS;fontSize=14;" vertex="1" connectable="0" parent="Pziv6GngQ0p8H3us6Z9j-9">
          <mxGeometry x="-0.2758" y="-2" relative="1" as="geometry">
            <mxPoint as="offset" />
          </mxGeometry>
        </mxCell>
        <mxCell id="Pziv6GngQ0p8H3us6Z9j-10" style="edgeStyle=none;rounded=0;orthogonalLoop=1;jettySize=auto;html=1;entryX=0.5;entryY=0;entryDx=0;entryDy=0;startArrow=classic;startFill=1;exitX=1;exitY=1;exitDx=0;exitDy=0;fontFamily=Comic Sans MS;fontSize=14;" edge="1" parent="1" source="Pziv6GngQ0p8H3us6Z9j-1" target="Pziv6GngQ0p8H3us6Z9j-6">
          <mxGeometry relative="1" as="geometry" />
        </mxCell>
        <mxCell id="Pziv6GngQ0p8H3us6Z9j-15" value="XML" style="edgeLabel;html=1;align=center;verticalAlign=middle;resizable=0;points=[];fontFamily=Comic Sans MS;fontSize=14;" vertex="1" connectable="0" parent="Pziv6GngQ0p8H3us6Z9j-10">
          <mxGeometry x="-0.1675" y="1" relative="1" as="geometry">
            <mxPoint y="1" as="offset" />
          </mxGeometry>
        </mxCell>
        <mxCell id="Pziv6GngQ0p8H3us6Z9j-1" value="&lt;b style=&quot;font-size: 14px;&quot;&gt;&lt;font style=&quot;font-size: 14px&quot;&gt;Description du Web service UDDI&lt;/font&gt;&lt;/b&gt;" style="ellipse;whiteSpace=wrap;html=1;fillColor=#d5e8d4;strokeColor=#82b366;fontFamily=Comic Sans MS;fontSize=14;" vertex="1" parent="1">
          <mxGeometry x="377" y="360" width="165" height="80" as="geometry" />
        </mxCell>
        <mxCell id="Pziv6GngQ0p8H3us6Z9j-7" value="" style="group;container=1;fontFamily=Comic Sans MS;fontSize=14;" vertex="1" connectable="0" parent="1">
          <mxGeometry x="194" y="520" width="531" height="80" as="geometry" />
        </mxCell>
        <mxCell id="Pziv6GngQ0p8H3us6Z9j-11" style="edgeStyle=none;rounded=0;orthogonalLoop=1;jettySize=auto;html=1;entryX=0;entryY=0.5;entryDx=0;entryDy=0;startArrow=classic;startFill=1;fontFamily=Comic Sans MS;fontSize=14;" edge="1" parent="Pziv6GngQ0p8H3us6Z9j-7" source="Pziv6GngQ0p8H3us6Z9j-5" target="Pziv6GngQ0p8H3us6Z9j-6">
          <mxGeometry relative="1" as="geometry" />
        </mxCell>
        <mxCell id="Pziv6GngQ0p8H3us6Z9j-12" value="&lt;b style=&quot;font-size: 14px;&quot;&gt;&lt;font style=&quot;font-size: 14px&quot;&gt;SOAP&lt;/font&gt;&lt;/b&gt;" style="edgeLabel;html=1;align=center;verticalAlign=middle;resizable=0;points=[];fontFamily=Comic Sans MS;fontSize=14;" vertex="1" connectable="0" parent="Pziv6GngQ0p8H3us6Z9j-11">
          <mxGeometry x="0.1045" y="2" relative="1" as="geometry">
            <mxPoint as="offset" />
          </mxGeometry>
        </mxCell>
        <mxCell id="Pziv6GngQ0p8H3us6Z9j-5" value="&lt;font style=&quot;font-size: 14px;&quot;&gt;&lt;span style=&quot;font-size: 14px&quot;&gt;&lt;b style=&quot;font-size: 14px;&quot;&gt;Fournisseur de service&amp;nbsp;&lt;/b&gt;&lt;/span&gt;&lt;/font&gt;" style="ellipse;whiteSpace=wrap;html=1;fillColor=#d5e8d4;strokeColor=#82b366;fontFamily=Comic Sans MS;fontSize=14;" vertex="1" parent="Pziv6GngQ0p8H3us6Z9j-7">
          <mxGeometry width="165" height="80" as="geometry" />
        </mxCell>
        <mxCell id="Pziv6GngQ0p8H3us6Z9j-6" value="&lt;font style=&quot;font-size: 14px;&quot;&gt;&lt;span style=&quot;font-size: 14px&quot;&gt;&lt;b style=&quot;font-size: 14px;&quot;&gt;Consommateur de service&amp;nbsp;&lt;/b&gt;&lt;/span&gt;&lt;/font&gt;" style="ellipse;whiteSpace=wrap;html=1;fillColor=#d5e8d4;strokeColor=#82b366;fontFamily=Comic Sans MS;fontSize=14;" vertex="1" parent="Pziv6GngQ0p8H3us6Z9j-7">
          <mxGeometry x="366" width="165" height="80" as="geometry" />
        </mxCell>
        <mxCell id="Pziv6GngQ0p8H3us6Z9j-16" value="Trouver le web service" style="text;html=1;align=center;verticalAlign=middle;resizable=0;points=[];autosize=1;rotation=323;fontFamily=Comic Sans MS;fontSize=14;" vertex="1" parent="1">
          <mxGeometry x="239" y="451" width="160" height="20" as="geometry" />
        </mxCell>
        <mxCell id="Pziv6GngQ0p8H3us6Z9j-17" value="Fournir WSDL" style="text;html=1;align=center;verticalAlign=middle;resizable=0;points=[];autosize=1;rotation=37;fontFamily=Comic Sans MS;fontSize=14;" vertex="1" parent="1">
          <mxGeometry x="545" y="439" width="110" height="20" as="geometry" />
        </mxCell>
      </root>
    </mxGraphModel>
  </diagram>
</mxfile>
